<?xml version="1.0" encoding="UTF-8"?>
<svg width="17px" height="17px" viewBox="0 0 17 17" version="1.1" xmlns="http://www.w3.org/2000/svg" xmlns:xlink="http://www.w3.org/1999/xlink">
    <!-- Generator: Sketch 51.1 (57501) - http://www.bohemiancoding.com/sketch -->
    <title>Shape</title>
    <desc>Created with Sketch.</desc>
    <defs></defs>
    <g id="Page-1" stroke="none" stroke-width="1" fill="none" fill-rule="evenodd" opacity="0.5">
        <g id="Desktop-HD" transform="translate(-44.000000, -144.000000)" fill="#2B2B2B" fill-rule="nonzero">
            <g id="Group-13" transform="translate(43.000000, 133.000000)">
                <g id="house-black-silhouette-without-door" transform="translate(1.000000, 11.000000)">
                    <path d="M16.7870132,8.29435784 C17.0951785,7.94427527 17.0654204,7.40770333 16.7205701,7.09620082 L9.12305646,0.229407981 C8.77820611,-0.0820945248 8.22532617,-0.075569114 7.88773525,0.244118776 L0.264398045,7.46231072 C-0.0731928765,7.78199861 -0.089762096,8.31788366 0.227713017,8.65875051 L0.418840904,8.8643582 C0.735928108,9.20522505 1.2484656,9.24586577 1.56289287,8.95485534 L2.13261911,8.42784256 L2.13261911,16.1433967 C2.13261911,16.6167752 2.50395804,17 2.96191132,17 L5.9335094,17 C6.39146268,17 6.76280161,16.6167752 6.76280161,16.1433967 L6.76280161,10.7456227 L10.5531076,10.7456227 L10.5531076,16.1433967 C10.5465131,16.6164318 10.8741847,16.9996566 11.332138,16.9996566 L14.4812871,16.9996566 C14.9392404,16.9996566 15.3105793,16.6164318 15.3105793,16.1430533 L15.3105793,8.53648492 C15.3105793,8.53648492 15.4679592,8.67889915 15.6620795,8.85514248 C15.8558674,9.03104237 16.2628939,8.89000191 16.5710592,8.53957591 L16.7870132,8.29435784 Z" id="Shape"></path>
                </g>
            </g>
        </g>
    </g>
</svg>