<?xml version="1.0" encoding="UTF-8"?>
<svg width="19px" height="19px" viewBox="0 0 19 19" version="1.1" xmlns="http://www.w3.org/2000/svg" xmlns:xlink="http://www.w3.org/1999/xlink">
    <!-- Generator: Sketch 51.1 (57501) - http://www.bohemiancoding.com/sketch -->
    <title>Shape</title>
    <desc>Created with Sketch.</desc>
    <defs></defs>
    <g id="Page-1" stroke="none" stroke-width="1" fill="none" fill-rule="evenodd">
        <g id="Desktop-HD" transform="translate(-332.000000, -49.000000)" fill="#B6B6B6" fill-rule="nonzero">
            <g id="Group" transform="translate(309.000000, 33.000000)">
                <g id="51923" transform="translate(23.000000, 16.000000)">
                    <g id="musica-searcher">
                        <path d="M18.5350043,16.2895746 L14.4073516,12.1619978 C14.385415,12.1400612 14.3596831,12.1247283 14.3367597,12.1043098 C15.1489461,10.8722914 15.6229745,9.39752789 15.6229745,7.81156317 C15.6229745,3.49733533 12.1256392,0 7.81148726,0 C3.49733533,0 0,3.49733533 0,7.81148726 C0,12.1255633 3.49725942,15.6229745 7.81141136,15.6229745 C9.39745198,15.6229745 10.8721396,15.1489461 12.104158,14.3367597 C12.1245765,14.3596072 12.1398335,14.3853391 12.1617701,14.4072757 L16.2894987,18.5350043 C16.9095689,19.1549986 17.9148583,19.1549986 18.5350043,18.5350043 C19.1549986,17.9149342 19.1549986,16.9096448 18.5350043,16.2895746 Z M7.71878974,13.0625 C4.76744986,13.0625 2.375,10.6700501 2.375,7.71878974 C2.375,4.76744986 4.76752934,2.375 7.71878974,2.375 C10.6699707,2.375 13.0625,4.76752934 13.0625,7.71878974 C13.0625,10.6700501 10.6699707,13.0625 7.71878974,13.0625 Z" id="Shape"></path>
                    </g>
                </g>
            </g>
        </g>
    </g>
</svg>