<?xml version="1.0" encoding="UTF-8"?>
<svg width="17px" height="16px" viewBox="0 0 17 16" version="1.1" xmlns="http://www.w3.org/2000/svg" xmlns:xlink="http://www.w3.org/1999/xlink">
    <!-- Generator: Sketch 51.1 (57501) - http://www.bohemiancoding.com/sketch -->
    <title>Shape</title>
    <desc>Created with Sketch.</desc>
    <defs></defs>
    <g id="Page-1" stroke="none" stroke-width="1" fill="none" fill-rule="evenodd" opacity="0.5">
        <g id="Desktop-HD" transform="translate(-44.000000, -184.000000)" fill="#2B2B2B" fill-rule="nonzero">
            <g id="Group-13" transform="translate(43.000000, 133.000000)">
                <g id="star" transform="translate(1.000000, 51.000000)">
                    <path d="M16.6310722,7.22260612 C16.9656898,6.90349637 17.0838101,6.43515785 16.9394786,5.99979622 C16.7948067,5.56443459 16.4179789,5.25365234 15.9550288,5.18769855 L11.8388576,4.60244195 C11.6635492,4.57745945 11.5120692,4.46986817 11.4337762,4.3143105 L9.59354947,0.664867492 C9.38692393,0.254821458 8.96754558,0 8.5001702,0 C8.03313522,0 7.61375688,0.254821458 7.40713134,0.664867492 L5.5665642,4.3146436 C5.48827116,4.47020127 5.33645075,4.57779255 5.16114243,4.60277505 L1.04497118,5.18803165 C0.582361463,5.25365234 0.205193274,5.56476769 0.0605213603,6.00012932 C-0.0838101489,6.43549095 0.0343102136,6.90382947 0.36892784,7.22293922 L3.34712684,10.0636156 C3.47409772,10.1848639 3.53230689,10.3594083 3.50235129,10.5299555 L2.7997564,14.541145 C2.73746237,14.894231 2.83209482,15.237657 3.06561231,15.5084673 C3.42848351,15.9305049 4.06197629,16.0590815 4.56849819,15.7985973 L8.24963249,13.904591 C8.40349532,13.8256463 8.59718549,13.8263125 8.75070792,13.904591 L12.4321826,15.7985973 C12.6112354,15.890866 12.8022023,15.9375 12.9992965,15.9375 C13.3591041,15.9375 13.7001894,15.780943 13.9347281,15.5084673 C14.168586,15.237657 14.262878,14.8935648 14.200584,14.541145 L13.4976487,10.5299555 C13.4676931,10.3590752 13.5259023,10.1848639 13.6528732,10.0636156 L16.6310722,7.22260612 Z" id="Shape"></path>
                </g>
            </g>
        </g>
    </g>
</svg>